<svg xmlns="http://www.w3.org/2000/svg" xmlns:xlink="http://www.w3.org/1999/xlink" width="200" height="200" class="icon" p-id="5029" version="1.1" viewBox="0 0 1024 1024"><path fill="#EA5406" d="M854.574545 281.134545C791.272727 135.912727 664.669091 37.236364 521.309091 37.236364 377.949091 37.236364 253.207273 134.050909 188.043636 277.410909c-7.447273 14.894545 14.894545 104.261818 70.749091 113.570909 27.927273 3.723636 72.610909-70.749091 109.847273-67.025454 13.032727 1.861818 26.065455 14.894545 40.96 16.756363 13.032727 0 26.065455-13.032727 39.098182-13.032727 42.821818 1.861818 85.643636 50.269091 128.465454 50.269091 27.927273 0 55.854545-50.269091 83.781819-52.130909 14.894545 0 27.927273-18.618182 42.821818-20.48 13.032727-1.861818 27.927273 14.894545 40.96 13.032727 27.927273-3.723636 59.578182 18.618182 78.196363 14.894546 27.927273-7.447273 37.236364-40.96 31.650909-52.13091z" p-id="5030"/><path fill="#fff" d="M247.621818 437.527273c-39.098182 0-65.163636-44.683636-89.367273-152.669091l-5.585454-27.927273 53.992727-11.170909 5.585455 27.927273c16.756364 76.334545 31.650909 100.538182 37.236363 106.123636 7.447273-3.723636 33.512727-26.065455 91.229091-115.432727l33.512728-53.992727 16.756363 61.44c5.585455 18.618182 9.309091 31.650909 13.032727 39.098181 1.861818-1.861818 3.723636-5.585455 7.447273-9.309091l14.894546-20.48 145.221818 80.058182 137.774545-126.603636 16.756364 35.374545c5.585455 11.170909 9.309091 16.756364 11.170909 20.48l1.861818-1.861818 7.447273-9.309091h13.032727c13.032727 0 20.48 5.585455 29.789091 16.756364 3.723636 3.723636 9.309091 9.309091 16.756364 14.894545 1.861818-7.447273 3.723636-16.756364 3.723636-31.650909l3.723636-27.927272 55.854546 5.585454-3.723636 27.927273c-5.585455 59.578182-14.894545 76.334545-27.927273 85.643636-26.065455 18.618182-55.854545-3.723636-78.196364-26.065454-11.170909 5.585455-20.48 7.447273-27.927273 5.585454-16.756364-1.861818-27.927273-11.170909-39.098181-24.203636L579.025455 428.218182l-135.912728-74.472727c-14.894545 16.756364-35.374545 33.512727-61.44 20.48-9.309091-5.585455-16.756364-13.032727-26.065454-31.65091-57.716364 81.92-85.643636 94.952727-107.985455 94.952728z m3.723637-53.992728z m160.116363-55.854545z m389.12 0z" class="selected" data-spm-anchor-id="a313x.search_index.0.i5.79fb3a81V7cI87" p-id="5031"/><path fill="#F8CBB4" d="M770.792727 716.8c-31.650909 0-68.887273-14.894545-117.294545-46.545455-55.854545 31.650909-100.538182 46.545455-139.636364 46.545455-37.236364 0-81.92-14.894545-135.912727-44.683636-35.374545 29.789091-68.887273 44.683636-98.676364 44.683636-35.374545 0-80.058182-20.48-139.636363-65.163636-20.48-14.894545-24.203636-44.683636-9.309091-65.163637s44.683636-24.203636 65.163636-9.309091c61.44 44.683636 81.92 46.545455 85.643636 46.545455 0 0 18.618182 0 59.578182-42.821818l26.065455-26.065455 31.650909 18.618182c68.887273 42.821818 102.4 48.407273 117.294545 48.407273 14.894545 0 48.407273-5.585455 115.432728-48.407273l26.065454-16.756364 26.065455 18.618182c61.44 44.683636 83.781818 46.545455 87.505454 46.545455 3.723636 0 24.203636-1.861818 72.610909-44.683637 18.618182-16.756364 48.407273-14.894545 65.163637 3.723637 16.756364 18.618182 14.894545 48.407273-3.723637 65.163636-52.130909 50.269091-94.952727 70.749091-134.050909 70.749091z" p-id="5032"/><path fill="#fff" d="M785.687273 660.945455c-31.650909 0-70.749091-16.756364-122.88-50.269091-61.44 33.512727-107.985455 50.269091-147.083637 50.269091-37.236364 0-85.643636-16.756364-145.221818-50.269091-39.098182 33.512727-72.610909 50.269091-102.4 50.269091-33.512727 0-76.334545-18.618182-134.050909-61.44-13.032727-9.309091-14.894545-26.065455-7.447273-39.098182 9.309091-13.032727 26.065455-14.894545 39.098182-7.447273 63.301818 44.683636 91.229091 50.269091 102.4 50.269091 11.170909 0 35.374545-5.585455 78.196364-48.407273l14.894545-14.894545 18.618182 11.170909c72.610909 42.821818 113.570909 52.130909 134.050909 52.130909 20.48 0 61.44-9.309091 134.050909-52.130909l14.894546-9.309091 14.894545 9.309091c63.301818 44.683636 93.090909 50.269091 106.123637 50.269091 11.170909 0 39.098182-5.585455 91.22909-50.269091 11.170909-9.309091 29.789091-7.447273 39.098182 3.723636 9.309091 11.170909 7.447273 29.789091-3.723636 39.098182-50.269091 46.545455-91.229091 67.025455-124.741818 67.025455z" class="selected" data-spm-anchor-id="a313x.search_index.0.i4.79fb3a81V7cI87" p-id="5033"/><path fill="#fff" d="M770.792727 754.036364c-29.789091 0-67.025455-16.756364-117.294545-50.269091-57.716364 33.512727-102.4 50.269091-139.636364 50.269091-35.374545 0-81.92-16.756364-137.774545-48.407273-37.236364 33.512727-68.887273 48.407273-96.814546 48.407273-31.650909 0-72.610909-18.618182-130.327272-61.44-13.032727-9.309091-14.894545-26.065455-5.585455-39.098182 9.309091-13.032727 26.065455-14.894545 39.098182-5.585455 61.44 44.683636 87.505455 50.269091 96.814545 50.269091s31.650909-5.585455 74.472728-48.407273l14.894545-14.894545 18.618182 11.170909c68.887273 42.821818 107.985455 52.130909 126.603636 52.130909 20.48 0 57.716364-9.309091 126.603637-52.130909l16.756363-9.309091 14.894546 11.170909c59.578182 44.683636 87.505455 50.269091 98.676363 50.269091 11.170909 0 35.374545-5.585455 85.643637-48.407273 11.170909-9.309091 29.789091-9.309091 39.098181 1.861819s9.309091 29.789091-1.861818 39.098181c-48.407273 42.821818-89.367273 63.301818-122.88 63.301819z" class="selected" data-spm-anchor-id="a313x.search_index.0.i3.79fb3a81V7cI87" p-id="5034"/><path fill="#fff" d="M512 1014.690909c-225.28 0-409.6-225.28-409.6-502.690909s184.32-502.690909 409.6-502.690909 409.6 225.28 409.6 502.690909-184.32 502.690909-409.6 502.690909z m0-949.527273c-195.490909 0-353.745455 201.076364-353.745455 446.836364s158.254545 446.836364 353.745455 446.836364 353.745455-201.076364 353.745455-446.836364-158.254545-446.836364-353.745455-446.836364z" class="selected" data-spm-anchor-id="a313x.search_index.0.i2.79fb3a81V7cI87" p-id="5035"/></svg>